# xmcd
#
# Track frame offsets: 
#        150
#        16429
#        29197
#        44594
#        59843
#        75291
#        92315
#        104512
#        118685
#        137741
#        157325
#        175490
#        197798
#        219228
#        232692
#
# Disc length: 3360 seconds
#
# Revision: 0
# Processed by: cddbd v1.5.2PL0 Copyright (c) Steve Scherf et al.
# Submitted via: ExactAudioCopy v1.0b3
#
DISCID=d20d1e0f
DTITLE=Various Artist - Songs Of Love, Heartbreak and Revenge
DYEAR=1900
DGENRE=Country
TTITLE0=New Reville - Miracle
TTITLE1=Sturgill Simpson - You Can Have The Crown
TTITLE2=Hurray For The Riff Raff - Look Out Mama
TTITLE3=My Darling Clementine - No Heart In The Heartache
TTITLE4=Danni Nichols - Goodnight Moon
TTITLE5=Guy Clark - Death Of Sis Draper
TTITLE6=Cherry Lee Mewis - Sounds Like Heaven To Me
TTITLE7=The Lucky Strikes - The Devils Know Yourself
TTITLE8=Mandolin Orange - There Was A Time
TTITLE9=Tony Joe White - Alligator, Mississippi
TTITLE10=The Arbor Doves - You Wouldn't Show Love
TTITLE11=Tombstone Billy - Swing High On High
TTITLE12=Ayesha - Hunger For The Taste
TTITLE13=Boggy Creek - Why Not
TTITLE14=Giant Head Collective - Gone
EXTD=
EXTT0=
EXTT1=
EXTT2=
EXTT3=
EXTT4=
EXTT5=
EXTT6=
EXTT7=
EXTT8=
EXTT9=
EXTT10=
EXTT11=
EXTT12=
EXTT13=
EXTT14=
PLAYORDER=
